<!DOCTYPE svg PUBLIC "-//W3C//DTD SVG 1.1//EN" "http://www.w3.org/Graphics/SVG/1.1/DTD/svg11.dtd">
<!-- Uploaded to: SVG Repo, www.svgrepo.com, Transformed by: SVG Repo Mixer Tools -->
<svg fill="#000000" height="800px" width="800px" version="1.1" xmlns="http://www.w3.org/2000/svg" viewBox="0 0 512 512" xmlns:xlink="http://www.w3.org/1999/xlink" enable-background="new 0 0 512 512" stroke="#000000" stroke-width="5.12">
<g id="SVGRepo_bgCarrier" stroke-width="0"/>
<g id="SVGRepo_tracerCarrier" stroke-linecap="round" stroke-linejoin="round"/>
<g id="SVGRepo_iconCarrier"> <g> <g> <path d="M501,11H11v390.9h155.7l-53,87.7l17.8,10.9l59.6-98.6h54.5v66.2h20.9v-66.2h54l59.9,99.1l17.8-10.9l-53.3-88.2H501V11z M481.2,381.9H31.9V32h449.3V381.9z"/> <path d="M175.7,191.7H86.1v141.8h89.7V191.7z M154.9,312.6h-48V211.7h48V312.6z"/> <path d="M300.8,94h-89.7v239.6h89.7V94z M280,312.6h-48V115h48V312.6z"/> <path d="m425.9,147.6h-89.7v186h89.7v-186zm-20.8,165h-48v-144h48v144z"/> </g> </g> </g>
</svg>